<?xml version="1.0" encoding="utf-8" standalone="no"?>
<!DOCTYPE svg PUBLIC "-//W3C//DTD SVG 1.1//EN"
  "http://www.w3.org/Graphics/SVG/1.1/DTD/svg11.dtd">
<!-- Created with matplotlib (https://matplotlib.org/) -->
<svg height="288pt" version="1.1" viewBox="0 0 432 288" width="432pt" xmlns="http://www.w3.org/2000/svg" xmlns:xlink="http://www.w3.org/1999/xlink">
 <defs>
  <style type="text/css">
*{stroke-linecap:butt;stroke-linejoin:round;}
  </style>
 </defs>
 <g id="figure_1">
  <g id="patch_1">
   <path d="M 0 288 
L 432 288 
L 432 0 
L 0 0 
z
" style="fill:#ffffff;"/>
  </g>
  <g id="axes_1">
   <g id="patch_2">
    <path d="M 54 252 
L 388.8 252 
L 388.8 34.56 
L 54 34.56 
z
" style="fill:#ffffff;"/>
   </g>
   <g id="matplotlib.axis_1">
    <g id="xtick_1">
     <g id="line2d_1">
      <defs>
       <path d="M 0 0 
L 0 3.5 
" id="meacf974800" style="stroke:#000000;stroke-width:0.8;"/>
      </defs>
      <g>
       <use style="stroke:#000000;stroke-width:0.8;" x="69.218182" xlink:href="#meacf974800" y="252"/>
      </g>
     </g>
     <g id="text_1">
      <!-- 0 -->
      <defs>
       <path d="M 31.78125 66.40625 
Q 24.171875 66.40625 20.328125 58.90625 
Q 16.5 51.421875 16.5 36.375 
Q 16.5 21.390625 20.328125 13.890625 
Q 24.171875 6.390625 31.78125 6.390625 
Q 39.453125 6.390625 43.28125 13.890625 
Q 47.125 21.390625 47.125 36.375 
Q 47.125 51.421875 43.28125 58.90625 
Q 39.453125 66.40625 31.78125 66.40625 
z
M 31.78125 74.21875 
Q 44.046875 74.21875 50.515625 64.515625 
Q 56.984375 54.828125 56.984375 36.375 
Q 56.984375 17.96875 50.515625 8.265625 
Q 44.046875 -1.421875 31.78125 -1.421875 
Q 19.53125 -1.421875 13.0625 8.265625 
Q 6.59375 17.96875 6.59375 36.375 
Q 6.59375 54.828125 13.0625 64.515625 
Q 19.53125 74.21875 31.78125 74.21875 
z
" id="DejaVuSans-48"/>
      </defs>
      <g transform="translate(66.036932 266.598437)scale(0.1 -0.1)">
       <use xlink:href="#DejaVuSans-48"/>
      </g>
     </g>
    </g>
    <g id="xtick_2">
     <g id="line2d_2">
      <g>
       <use style="stroke:#000000;stroke-width:0.8;" x="126.002442" xlink:href="#meacf974800" y="252"/>
      </g>
     </g>
     <g id="text_2">
      <!-- 50 -->
      <defs>
       <path d="M 10.796875 72.90625 
L 49.515625 72.90625 
L 49.515625 64.59375 
L 19.828125 64.59375 
L 19.828125 46.734375 
Q 21.96875 47.46875 24.109375 47.828125 
Q 26.265625 48.1875 28.421875 48.1875 
Q 40.625 48.1875 47.75 41.5 
Q 54.890625 34.8125 54.890625 23.390625 
Q 54.890625 11.625 47.5625 5.09375 
Q 40.234375 -1.421875 26.90625 -1.421875 
Q 22.3125 -1.421875 17.546875 -0.640625 
Q 12.796875 0.140625 7.71875 1.703125 
L 7.71875 11.625 
Q 12.109375 9.234375 16.796875 8.0625 
Q 21.484375 6.890625 26.703125 6.890625 
Q 35.15625 6.890625 40.078125 11.328125 
Q 45.015625 15.765625 45.015625 23.390625 
Q 45.015625 31 40.078125 35.4375 
Q 35.15625 39.890625 26.703125 39.890625 
Q 22.75 39.890625 18.8125 39.015625 
Q 14.890625 38.140625 10.796875 36.28125 
z
" id="DejaVuSans-53"/>
      </defs>
      <g transform="translate(119.639942 266.598437)scale(0.1 -0.1)">
       <use xlink:href="#DejaVuSans-53"/>
       <use x="63.623047" xlink:href="#DejaVuSans-48"/>
      </g>
     </g>
    </g>
    <g id="xtick_3">
     <g id="line2d_3">
      <g>
       <use style="stroke:#000000;stroke-width:0.8;" x="182.786703" xlink:href="#meacf974800" y="252"/>
      </g>
     </g>
     <g id="text_3">
      <!-- 100 -->
      <defs>
       <path d="M 12.40625 8.296875 
L 28.515625 8.296875 
L 28.515625 63.921875 
L 10.984375 60.40625 
L 10.984375 69.390625 
L 28.421875 72.90625 
L 38.28125 72.90625 
L 38.28125 8.296875 
L 54.390625 8.296875 
L 54.390625 0 
L 12.40625 0 
z
" id="DejaVuSans-49"/>
      </defs>
      <g transform="translate(173.242953 266.598437)scale(0.1 -0.1)">
       <use xlink:href="#DejaVuSans-49"/>
       <use x="63.623047" xlink:href="#DejaVuSans-48"/>
       <use x="127.246094" xlink:href="#DejaVuSans-48"/>
      </g>
     </g>
    </g>
    <g id="xtick_4">
     <g id="line2d_4">
      <g>
       <use style="stroke:#000000;stroke-width:0.8;" x="239.570963" xlink:href="#meacf974800" y="252"/>
      </g>
     </g>
     <g id="text_4">
      <!-- 150 -->
      <g transform="translate(230.027213 266.598437)scale(0.1 -0.1)">
       <use xlink:href="#DejaVuSans-49"/>
       <use x="63.623047" xlink:href="#DejaVuSans-53"/>
       <use x="127.246094" xlink:href="#DejaVuSans-48"/>
      </g>
     </g>
    </g>
    <g id="xtick_5">
     <g id="line2d_5">
      <g>
       <use style="stroke:#000000;stroke-width:0.8;" x="296.355224" xlink:href="#meacf974800" y="252"/>
      </g>
     </g>
     <g id="text_5">
      <!-- 200 -->
      <defs>
       <path d="M 19.1875 8.296875 
L 53.609375 8.296875 
L 53.609375 0 
L 7.328125 0 
L 7.328125 8.296875 
Q 12.9375 14.109375 22.625 23.890625 
Q 32.328125 33.6875 34.8125 36.53125 
Q 39.546875 41.84375 41.421875 45.53125 
Q 43.3125 49.21875 43.3125 52.78125 
Q 43.3125 58.59375 39.234375 62.25 
Q 35.15625 65.921875 28.609375 65.921875 
Q 23.96875 65.921875 18.8125 64.3125 
Q 13.671875 62.703125 7.8125 59.421875 
L 7.8125 69.390625 
Q 13.765625 71.78125 18.9375 73 
Q 24.125 74.21875 28.421875 74.21875 
Q 39.75 74.21875 46.484375 68.546875 
Q 53.21875 62.890625 53.21875 53.421875 
Q 53.21875 48.921875 51.53125 44.890625 
Q 49.859375 40.875 45.40625 35.40625 
Q 44.1875 33.984375 37.640625 27.21875 
Q 31.109375 20.453125 19.1875 8.296875 
z
" id="DejaVuSans-50"/>
      </defs>
      <g transform="translate(286.811474 266.598437)scale(0.1 -0.1)">
       <use xlink:href="#DejaVuSans-50"/>
       <use x="63.623047" xlink:href="#DejaVuSans-48"/>
       <use x="127.246094" xlink:href="#DejaVuSans-48"/>
      </g>
     </g>
    </g>
    <g id="xtick_6">
     <g id="line2d_6">
      <g>
       <use style="stroke:#000000;stroke-width:0.8;" x="353.139484" xlink:href="#meacf974800" y="252"/>
      </g>
     </g>
     <g id="text_6">
      <!-- 250 -->
      <g transform="translate(343.595734 266.598437)scale(0.1 -0.1)">
       <use xlink:href="#DejaVuSans-50"/>
       <use x="63.623047" xlink:href="#DejaVuSans-53"/>
       <use x="127.246094" xlink:href="#DejaVuSans-48"/>
      </g>
     </g>
    </g>
   </g>
   <g id="matplotlib.axis_2">
    <g id="ytick_1">
     <g id="line2d_7">
      <defs>
       <path d="M 0 0 
L -3.5 0 
" id="m6ea7ce3f1b" style="stroke:#000000;stroke-width:0.8;"/>
      </defs>
      <g>
       <use style="stroke:#000000;stroke-width:0.8;" x="54" xlink:href="#m6ea7ce3f1b" y="242.094291"/>
      </g>
     </g>
     <g id="text_7">
      <!-- 0 -->
      <g transform="translate(40.6375 245.89351)scale(0.1 -0.1)">
       <use xlink:href="#DejaVuSans-48"/>
      </g>
     </g>
    </g>
    <g id="ytick_2">
     <g id="line2d_8">
      <g>
       <use style="stroke:#000000;stroke-width:0.8;" x="54" xlink:href="#m6ea7ce3f1b" y="204.288121"/>
      </g>
     </g>
     <g id="text_8">
      <!-- 500 -->
      <g transform="translate(27.9125 208.08734)scale(0.1 -0.1)">
       <use xlink:href="#DejaVuSans-53"/>
       <use x="63.623047" xlink:href="#DejaVuSans-48"/>
       <use x="127.246094" xlink:href="#DejaVuSans-48"/>
      </g>
     </g>
    </g>
    <g id="ytick_3">
     <g id="line2d_9">
      <g>
       <use style="stroke:#000000;stroke-width:0.8;" x="54" xlink:href="#m6ea7ce3f1b" y="166.481952"/>
      </g>
     </g>
     <g id="text_9">
      <!-- 1000 -->
      <g transform="translate(21.55 170.28117)scale(0.1 -0.1)">
       <use xlink:href="#DejaVuSans-49"/>
       <use x="63.623047" xlink:href="#DejaVuSans-48"/>
       <use x="127.246094" xlink:href="#DejaVuSans-48"/>
       <use x="190.869141" xlink:href="#DejaVuSans-48"/>
      </g>
     </g>
    </g>
    <g id="ytick_4">
     <g id="line2d_10">
      <g>
       <use style="stroke:#000000;stroke-width:0.8;" x="54" xlink:href="#m6ea7ce3f1b" y="128.675782"/>
      </g>
     </g>
     <g id="text_10">
      <!-- 1500 -->
      <g transform="translate(21.55 132.475001)scale(0.1 -0.1)">
       <use xlink:href="#DejaVuSans-49"/>
       <use x="63.623047" xlink:href="#DejaVuSans-53"/>
       <use x="127.246094" xlink:href="#DejaVuSans-48"/>
       <use x="190.869141" xlink:href="#DejaVuSans-48"/>
      </g>
     </g>
    </g>
    <g id="ytick_5">
     <g id="line2d_11">
      <g>
       <use style="stroke:#000000;stroke-width:0.8;" x="54" xlink:href="#m6ea7ce3f1b" y="90.869613"/>
      </g>
     </g>
     <g id="text_11">
      <!-- 2000 -->
      <g transform="translate(21.55 94.668831)scale(0.1 -0.1)">
       <use xlink:href="#DejaVuSans-50"/>
       <use x="63.623047" xlink:href="#DejaVuSans-48"/>
       <use x="127.246094" xlink:href="#DejaVuSans-48"/>
       <use x="190.869141" xlink:href="#DejaVuSans-48"/>
      </g>
     </g>
    </g>
    <g id="ytick_6">
     <g id="line2d_12">
      <g>
       <use style="stroke:#000000;stroke-width:0.8;" x="54" xlink:href="#m6ea7ce3f1b" y="53.063443"/>
      </g>
     </g>
     <g id="text_12">
      <!-- 2500 -->
      <g transform="translate(21.55 56.862662)scale(0.1 -0.1)">
       <use xlink:href="#DejaVuSans-50"/>
       <use x="63.623047" xlink:href="#DejaVuSans-53"/>
       <use x="127.246094" xlink:href="#DejaVuSans-48"/>
       <use x="190.869141" xlink:href="#DejaVuSans-48"/>
      </g>
     </g>
    </g>
   </g>
   <g id="line2d_13">
    <path clip-path="url(#pf5814ab466)" d="M 69.218182 242.094291 
L 87.389145 242.116364 
L 88.52483 240.223373 
L 89.660516 236.924448 
L 90.796201 237.756833 
L 91.931886 238.342431 
L 93.067571 238.39522 
L 94.203256 225.715767 
L 95.338942 236.329761 
L 96.474627 237.648854 
L 97.610312 232.686051 
L 98.745997 229.273623 
L 99.881682 234.655075 
L 101.017368 230.488173 
L 102.153053 228.492525 
L 103.288738 233.029582 
L 104.424423 210.427918 
L 105.560109 217.48612 
L 106.695794 227.281066 
L 107.831479 188.924722 
L 108.967164 226.440777 
L 110.102849 219.148828 
L 111.238535 233.843448 
L 112.37422 232.343038 
L 113.509905 229.88574 
L 114.64559 228.717991 
L 115.781275 226.542907 
L 116.916961 229.366009 
L 118.052646 227.341907 
L 119.188331 230.844369 
L 120.324016 231.240998 
L 121.459701 230.360736 
L 122.595387 234.660281 
L 123.731072 232.950686 
L 124.866757 230.201762 
L 126.002442 231.322235 
L 127.138128 233.702662 
L 128.273813 231.898621 
L 129.409498 230.506208 
L 130.545183 228.477207 
L 131.680868 229.509859 
L 132.816554 228.521501 
L 133.952239 230.044087 
L 135.087924 230.240762 
L 136.223609 230.89557 
L 137.359294 230.775328 
L 138.49498 233.040964 
L 139.630665 232.277933 
L 140.76635 229.013092 
L 141.902035 227.561297 
L 143.03772 234.511733 
L 144.173406 219.784892 
L 145.309091 224.814395 
L 146.444776 227.489022 
L 147.580461 227.431614 
L 148.716147 224.080001 
L 149.851832 231.892656 
L 150.987517 216.154078 
L 152.123202 226.803707 
L 153.258887 225.731059 
L 154.394573 225.164293 
L 155.530258 229.311366 
L 156.665943 224.438033 
L 157.801628 223.584695 
L 158.937313 229.941151 
L 160.072999 232.276753 
L 161.208684 219.919092 
L 162.344369 222.478962 
L 163.480054 224.324055 
L 164.615739 224.694837 
L 165.751425 225.327862 
L 166.88711 233.900114 
L 168.022795 213.466277 
L 169.15848 216.165743 
L 170.294166 223.410403 
L 171.429851 216.453682 
L 172.565536 216.454056 
L 173.701221 207.329912 
L 174.836906 228.055009 
L 175.972592 216.309819 
L 177.108277 218.06583 
L 178.243962 218.506815 
L 179.379647 217.983092 
L 180.515332 216.134679 
L 181.651018 213.264539 
L 182.786703 225.69386 
L 183.922388 204.130823 
L 185.058073 210.575818 
L 186.193758 212.485666 
L 187.329444 210.109489 
L 188.465129 152.769305 
L 189.600814 156.627703 
L 190.736499 226.574903 
L 191.872185 91.28465 
L 193.00787 139.42118 
L 194.143555 138.355315 
L 195.27924 150.208823 
L 196.414925 148.720021 
L 197.550611 176.236862 
L 198.686296 226.803549 
L 199.821981 132.484163 
L 200.957666 188.015588 
L 202.093351 142.508945 
L 203.229037 155.318757 
L 204.364722 164.160232 
L 205.500407 182.564379 
L 206.636092 192.825597 
L 207.771777 160.674597 
L 208.907463 148.88737 
L 210.043148 176.249309 
L 211.178833 170.007483 
L 212.314518 160.154873 
L 213.450204 106.641376 
L 214.585889 133.895489 
L 215.721574 94.800697 
L 216.857259 107.806278 
L 217.992944 138.405951 
L 219.12863 125.2877 
L 220.264315 135.096545 
L 221.4 146.57884 
L 222.535685 174.424063 
L 223.67137 156.606493 
L 224.807056 136.036512 
L 225.942741 144.065007 
L 227.078426 126.026627 
L 228.214111 145.655875 
L 229.349796 135.856352 
L 231.621167 175.290757 
L 233.892537 135.169093 
L 236.163908 91.285859 
L 237.299593 99.19176 
L 238.435278 111.790971 
L 239.570963 132.432955 
L 240.706649 136.672839 
L 241.842334 143.285098 
L 242.978019 168.201643 
L 244.113704 156.915016 
L 245.249389 142.690149 
L 246.385075 152.218937 
L 247.52076 180.577778 
L 248.656445 168.011237 
L 249.79213 171.140524 
L 250.927815 171.027931 
L 252.063501 165.955379 
L 253.199186 165.497224 
L 254.334871 183.197258 
L 255.470556 185.721637 
L 256.606242 171.30342 
L 257.741927 181.081373 
L 258.877612 177.246483 
L 260.013297 172.216444 
L 261.148982 171.368695 
L 262.284668 184.752517 
L 263.420353 183.59025 
L 264.556038 178.488332 
L 265.691723 178.962907 
L 266.827408 193.66138 
L 267.963094 190.202873 
L 269.098779 135.89113 
L 270.234464 110.612814 
L 272.505834 150.789835 
L 273.64152 165.499517 
L 274.777205 183.949727 
L 275.91289 174.459686 
L 277.048575 172.962359 
L 278.184261 170.735215 
L 279.319946 177.175574 
L 280.455631 149.728078 
L 281.591316 188.862087 
L 282.727001 184.378253 
L 283.862687 171.527875 
L 284.998372 170.696472 
L 286.134057 151.799304 
L 287.269742 186.35514 
L 288.405427 179.727047 
L 289.541113 141.380437 
L 290.676798 151.984883 
L 291.812483 198.623015 
L 292.948168 209.979897 
L 294.083853 177.948551 
L 295.219539 190.80263 
L 296.355224 205.449115 
L 297.490909 195.491209 
L 298.626594 218.435527 
L 299.76228 230.322495 
L 300.897965 220.699573 
L 302.03365 229.986745 
L 303.169335 227.597218 
L 304.30502 232.818121 
L 305.440706 226.863648 
L 306.576391 229.589734 
L 307.712076 218.007674 
L 308.847761 226.620417 
L 309.983446 228.865582 
L 311.119132 220.172107 
L 312.254817 224.207918 
L 313.390502 230.524613 
L 314.526187 228.641134 
L 315.661872 228.57556 
L 316.797558 226.730835 
L 317.933243 225.387909 
L 319.068928 221.557882 
L 320.204613 200.483543 
L 321.340299 218.228251 
L 322.475984 224.246784 
L 323.611669 219.000248 
L 324.747354 222.015338 
L 325.883039 221.576213 
L 327.018725 225.702832 
L 328.15441 221.695433 
L 329.290095 222.077073 
L 330.42578 215.96178 
L 331.561465 203.571468 
L 332.697151 186.549948 
L 333.832836 201.906448 
L 334.968521 192.020388 
L 336.104206 226.097261 
L 337.239891 216.151365 
L 338.375577 212.512172 
L 339.511262 203.040993 
L 340.646947 206.729506 
L 342.918318 180.667259 
L 344.054003 210.576115 
L 345.189688 204.082686 
L 346.325373 217.651245 
L 347.461058 203.205024 
L 348.596744 194.920568 
L 349.732429 155.921967 
L 352.003799 217.339885 
L 353.139484 202.176375 
L 354.27517 173.603057 
L 355.410855 196.813197 
L 356.54654 197.242786 
L 358.81791 180.619442 
L 359.953596 179.264867 
L 361.089281 175.124058 
L 362.224966 173.041968 
L 363.360651 179.176712 
L 364.496336 189.771987 
L 365.632022 185.786409 
L 366.767707 170.055415 
L 367.903392 170.571973 
L 369.039077 192.482619 
L 370.174763 191.504855 
L 371.310448 173.96558 
L 372.446133 169.606153 
L 373.581818 177.691859 
L 373.581818 177.691859 
" style="fill:none;stroke:#1f77b4;stroke-linecap:square;stroke-width:1.5;"/>
   </g>
   <g id="line2d_14">
    <path clip-path="url(#pf5814ab466)" d="M 69.218182 242.094291 
L 70.353867 242.094291 
L 71.489552 241.791842 
L 72.625237 242.018679 
L 74.896608 242.094291 
L 76.032293 241.943066 
L 77.167978 242.094291 
L 78.303664 241.867454 
L 79.439349 242.094291 
L 82.846404 242.094291 
L 83.98209 241.035718 
L 85.117775 241.943066 
L 87.389145 242.094291 
L 88.52483 240.052758 
L 89.660516 236.045304 
L 90.796201 238.238062 
L 91.931886 240.733269 
L 93.067571 240.12837 
L 94.203256 225.762026 
L 95.338942 235.969691 
L 96.474627 239.296634 
L 97.610312 233.247647 
L 98.745997 229.46703 
L 99.881682 233.928158 
L 101.017368 230.676828 
L 102.153053 228.635295 
L 103.288738 233.701321 
L 104.424423 210.790782 
L 105.560109 216.612933 
L 106.695794 227.349885 
L 107.831479 188.711979 
L 108.967164 225.91325 
L 110.102849 219.410589 
L 111.238535 236.952652 
L 112.37422 233.172035 
L 113.509905 229.996317 
L 114.64559 227.727946 
L 115.781275 226.291312 
L 116.916961 230.449991 
L 118.052646 227.501109 
L 119.188331 229.240193 
L 120.324016 230.449991 
L 121.459701 229.542643 
L 122.595387 236.952652 
L 123.731072 233.096423 
L 124.866757 230.601215 
L 126.002442 231.054889 
L 127.138128 234.457445 
L 128.273813 234.684282 
L 129.409498 230.071929 
L 130.545183 228.862132 
L 131.680868 227.349885 
L 132.816554 227.349885 
L 133.952239 230.223154 
L 135.087924 232.264687 
L 136.223609 232.340299 
L 137.359294 229.920704 
L 138.49498 233.32326 
L 139.630665 232.03785 
L 140.76635 225.686413 
L 141.902035 226.291312 
L 143.03772 236.423365 
L 144.173406 219.561814 
L 145.309091 223.947329 
L 146.444776 226.593761 
L 147.580461 227.274272 
L 148.716147 224.476616 
L 149.851832 236.347753 
L 150.987517 216.461708 
L 152.123202 229.240193 
L 153.258887 225.157127 
L 154.394573 224.249779 
L 155.530258 227.879171 
L 156.665943 223.720492 
L 157.801628 223.64488 
L 158.937313 230.676828 
L 160.072999 236.498978 
L 161.208684 220.469162 
L 162.344369 222.35947 
L 163.480054 224.854678 
L 164.615739 224.022942 
L 165.751425 226.140087 
L 166.88711 237.86 
L 168.022795 212.756703 
L 169.15848 214.647012 
L 170.294166 223.871717 
L 171.429851 216.764157 
L 172.565536 216.612933 
L 173.701221 205.573531 
L 174.836906 229.76948 
L 175.972592 216.990994 
L 177.108277 217.898342 
L 178.243962 218.352016 
L 179.379647 218.503241 
L 180.515332 217.595893 
L 181.651018 213.361602 
L 182.786703 226.2157 
L 183.922388 203.985672 
L 185.058073 209.959047 
L 186.193758 208.068738 
L 187.329444 212.227417 
L 188.465129 152.342444 
L 189.600814 156.274286 
L 190.736499 228.559682 
L 191.872185 91.323287 
L 193.00787 138.202937 
L 194.143555 138.883448 
L 195.27924 149.015501 
L 196.414925 148.486215 
L 197.550611 173.438287 
L 198.686296 233.550097 
L 199.821981 132.229562 
L 200.957666 189.69494 
L 202.093351 133.43936 
L 203.229037 147.654479 
L 204.364722 150.754585 
L 205.500407 196.953724 
L 206.636092 190.375451 
L 207.771777 152.947343 
L 208.907463 126.02935 
L 210.043148 189.090041 
L 211.178833 173.513899 
L 212.314518 160.357352 
L 213.450204 95.481965 
L 214.585889 134.044258 
L 215.721574 90.794 
L 217.992944 140.546919 
L 219.12863 121.190161 
L 220.264315 122.173121 
L 221.4 147.503255 
L 222.535685 169.279608 
L 223.67137 141.832329 
L 225.942741 132.910073 
L 227.078426 129.280681 
L 228.214111 151.132647 
L 229.349796 129.129456 
L 230.485482 148.63744 
L 231.621167 178.126252 
L 232.756852 131.322214 
L 233.892537 131.246602 
L 235.028223 111.738618 
L 236.163908 82.249806 
L 237.299593 96.9186 
L 238.435278 109.167799 
L 239.570963 131.473439 
L 240.706649 133.363747 
L 241.842334 138.429774 
L 242.978019 166.10389 
L 244.113704 146.520294 
L 245.249389 134.951606 
L 246.385075 154.610814 
L 247.52076 181.150746 
L 248.656445 170.867467 
L 249.79213 167.313687 
L 250.927815 171.699203 
L 252.063501 155.215713 
L 253.199186 157.106022 
L 254.334871 200.129443 
L 255.470556 189.846165 
L 256.606242 171.92604 
L 257.741927 181.30197 
L 258.877612 169.884507 
L 260.013297 164.440419 
L 261.148982 159.903678 
L 262.284668 184.553301 
L 263.420353 182.814217 
L 264.556038 175.47982 
L 265.691723 173.589512 
L 266.827408 197.256174 
L 267.963094 134.875994 
L 269.098779 124.063429 
L 270.234464 158.315819 
L 271.370149 178.731151 
L 272.505834 174.421247 
L 273.64152 197.104949 
L 274.777205 186.594834 
L 275.91289 165.347767 
L 277.048575 171.92604 
L 278.184261 184.402076 
L 279.319946 242.094291 
L 280.455631 203.229549 
L 281.591316 187.42657 
L 282.727001 185.989935 
L 283.862687 170.413793 
L 284.998372 212.756703 
L 286.134057 164.742868 
L 287.269742 160.432965 
L 288.405427 215.100686 
L 289.541113 221.830184 
L 290.676798 200.35628 
L 291.812483 206.027205 
L 292.948168 195.819539 
L 294.083853 225.081515 
L 295.219539 203.758835 
L 296.355224 231.357339 
L 297.490909 234.079383 
L 298.626594 226.669374 
L 299.76228 223.039981 
L 300.897965 233.550097 
L 302.03365 229.088969 
L 303.169335 232.03785 
L 304.30502 219.410589 
L 305.440706 231.432951 
L 306.576391 235.969691 
L 307.712076 221.981409 
L 308.847761 213.361602 
L 309.983446 225.91325 
L 311.119132 229.164581 
L 312.254817 227.576722 
L 313.390502 227.652334 
L 314.526187 232.340299 
L 315.661872 223.342431 
L 316.797558 219.486201 
L 317.933243 210.337108 
L 319.068928 225.232739 
L 320.204613 229.46703 
L 321.340299 193.24872 
L 322.475984 226.140087 
L 323.611669 218.049567 
L 324.747354 224.779065 
L 325.883039 225.535189 
L 327.018725 219.410589 
L 328.15441 225.232739 
L 329.290095 193.929231 
L 330.42578 220.922836 
L 331.561465 215.100686 
L 332.697151 186.746059 
L 333.832836 221.225285 
L 334.968521 212.98354 
L 336.104206 229.240193 
L 337.239891 186.065548 
L 338.375577 219.183752 
L 339.511262 202.927099 
L 340.646947 194.53413 
L 341.782632 214.495787 
L 342.918318 211.168844 
L 344.054003 208.295575 
L 345.189688 204.590571 
L 346.325373 194.080456 
L 347.461058 195.592702 
L 348.596744 207.46384 
L 349.732429 192.94627 
L 350.868114 204.817408 
L 352.003799 192.114535 
L 353.139484 217.520281 
L 354.27517 178.353089 
L 355.410855 188.333918 
L 356.54654 194.912191 
L 357.682225 164.440419 
L 358.81791 222.283858 
L 359.953596 208.068738 
L 361.089281 131.8515 
L 362.224966 145.688558 
L 363.360651 165.423379 
L 364.496336 138.429774 
L 365.632022 187.12412 
L 366.767707 176.084719 
L 367.903392 145.234884 
L 369.039077 108.5629 
L 370.174763 199.902606 
L 371.310448 234.154995 
L 372.446133 237.557551 
L 373.581818 44.443636 
L 373.581818 44.443636 
" style="fill:none;stroke:#ff7f0e;stroke-linecap:square;stroke-width:1.5;"/>
   </g>
   <g id="patch_3">
    <path d="M 54 252 
L 54 34.56 
" style="fill:none;stroke:#000000;stroke-linecap:square;stroke-linejoin:miter;stroke-width:0.8;"/>
   </g>
   <g id="patch_4">
    <path d="M 388.8 252 
L 388.8 34.56 
" style="fill:none;stroke:#000000;stroke-linecap:square;stroke-linejoin:miter;stroke-width:0.8;"/>
   </g>
   <g id="patch_5">
    <path d="M 54 252 
L 388.8 252 
" style="fill:none;stroke:#000000;stroke-linecap:square;stroke-linejoin:miter;stroke-width:0.8;"/>
   </g>
   <g id="patch_6">
    <path d="M 54 34.56 
L 388.8 34.56 
" style="fill:none;stroke:#000000;stroke-linecap:square;stroke-linejoin:miter;stroke-width:0.8;"/>
   </g>
  </g>
 </g>
 <defs>
  <clipPath id="pf5814ab466">
   <rect height="217.44" width="334.8" x="54" y="34.56"/>
  </clipPath>
 </defs>
</svg>
