<?xml version="1.0" encoding="utf-8" standalone="no"?>
<!DOCTYPE svg PUBLIC "-//W3C//DTD SVG 1.1//EN"
  "http://www.w3.org/Graphics/SVG/1.1/DTD/svg11.dtd">
<!-- Created with matplotlib (https://matplotlib.org/) -->
<svg height="288pt" version="1.1" viewBox="0 0 432 288" width="432pt" xmlns="http://www.w3.org/2000/svg" xmlns:xlink="http://www.w3.org/1999/xlink">
 <defs>
  <style type="text/css">
*{stroke-linecap:butt;stroke-linejoin:round;}
  </style>
 </defs>
 <g id="figure_1">
  <g id="patch_1">
   <path d="M 0 288 
L 432 288 
L 432 0 
L 0 0 
z
" style="fill:#ffffff;"/>
  </g>
  <g id="axes_1">
   <g id="patch_2">
    <path d="M 54 252 
L 388.8 252 
L 388.8 34.56 
L 54 34.56 
z
" style="fill:#ffffff;"/>
   </g>
   <g id="matplotlib.axis_1">
    <g id="xtick_1">
     <g id="line2d_1">
      <defs>
       <path d="M 0 0 
L 0 3.5 
" id="m6016fc8a6a" style="stroke:#000000;stroke-width:0.8;"/>
      </defs>
      <g>
       <use style="stroke:#000000;stroke-width:0.8;" x="69.218182" xlink:href="#m6016fc8a6a" y="252"/>
      </g>
     </g>
     <g id="text_1">
      <!-- 0 -->
      <defs>
       <path d="M 31.78125 66.40625 
Q 24.171875 66.40625 20.328125 58.90625 
Q 16.5 51.421875 16.5 36.375 
Q 16.5 21.390625 20.328125 13.890625 
Q 24.171875 6.390625 31.78125 6.390625 
Q 39.453125 6.390625 43.28125 13.890625 
Q 47.125 21.390625 47.125 36.375 
Q 47.125 51.421875 43.28125 58.90625 
Q 39.453125 66.40625 31.78125 66.40625 
z
M 31.78125 74.21875 
Q 44.046875 74.21875 50.515625 64.515625 
Q 56.984375 54.828125 56.984375 36.375 
Q 56.984375 17.96875 50.515625 8.265625 
Q 44.046875 -1.421875 31.78125 -1.421875 
Q 19.53125 -1.421875 13.0625 8.265625 
Q 6.59375 17.96875 6.59375 36.375 
Q 6.59375 54.828125 13.0625 64.515625 
Q 19.53125 74.21875 31.78125 74.21875 
z
" id="DejaVuSans-48"/>
      </defs>
      <g transform="translate(66.036932 266.598437)scale(0.1 -0.1)">
       <use xlink:href="#DejaVuSans-48"/>
      </g>
     </g>
    </g>
    <g id="xtick_2">
     <g id="line2d_2">
      <g>
       <use style="stroke:#000000;stroke-width:0.8;" x="126.002442" xlink:href="#m6016fc8a6a" y="252"/>
      </g>
     </g>
     <g id="text_2">
      <!-- 50 -->
      <defs>
       <path d="M 10.796875 72.90625 
L 49.515625 72.90625 
L 49.515625 64.59375 
L 19.828125 64.59375 
L 19.828125 46.734375 
Q 21.96875 47.46875 24.109375 47.828125 
Q 26.265625 48.1875 28.421875 48.1875 
Q 40.625 48.1875 47.75 41.5 
Q 54.890625 34.8125 54.890625 23.390625 
Q 54.890625 11.625 47.5625 5.09375 
Q 40.234375 -1.421875 26.90625 -1.421875 
Q 22.3125 -1.421875 17.546875 -0.640625 
Q 12.796875 0.140625 7.71875 1.703125 
L 7.71875 11.625 
Q 12.109375 9.234375 16.796875 8.0625 
Q 21.484375 6.890625 26.703125 6.890625 
Q 35.15625 6.890625 40.078125 11.328125 
Q 45.015625 15.765625 45.015625 23.390625 
Q 45.015625 31 40.078125 35.4375 
Q 35.15625 39.890625 26.703125 39.890625 
Q 22.75 39.890625 18.8125 39.015625 
Q 14.890625 38.140625 10.796875 36.28125 
z
" id="DejaVuSans-53"/>
      </defs>
      <g transform="translate(119.639942 266.598437)scale(0.1 -0.1)">
       <use xlink:href="#DejaVuSans-53"/>
       <use x="63.623047" xlink:href="#DejaVuSans-48"/>
      </g>
     </g>
    </g>
    <g id="xtick_3">
     <g id="line2d_3">
      <g>
       <use style="stroke:#000000;stroke-width:0.8;" x="182.786703" xlink:href="#m6016fc8a6a" y="252"/>
      </g>
     </g>
     <g id="text_3">
      <!-- 100 -->
      <defs>
       <path d="M 12.40625 8.296875 
L 28.515625 8.296875 
L 28.515625 63.921875 
L 10.984375 60.40625 
L 10.984375 69.390625 
L 28.421875 72.90625 
L 38.28125 72.90625 
L 38.28125 8.296875 
L 54.390625 8.296875 
L 54.390625 0 
L 12.40625 0 
z
" id="DejaVuSans-49"/>
      </defs>
      <g transform="translate(173.242953 266.598437)scale(0.1 -0.1)">
       <use xlink:href="#DejaVuSans-49"/>
       <use x="63.623047" xlink:href="#DejaVuSans-48"/>
       <use x="127.246094" xlink:href="#DejaVuSans-48"/>
      </g>
     </g>
    </g>
    <g id="xtick_4">
     <g id="line2d_4">
      <g>
       <use style="stroke:#000000;stroke-width:0.8;" x="239.570963" xlink:href="#m6016fc8a6a" y="252"/>
      </g>
     </g>
     <g id="text_4">
      <!-- 150 -->
      <g transform="translate(230.027213 266.598437)scale(0.1 -0.1)">
       <use xlink:href="#DejaVuSans-49"/>
       <use x="63.623047" xlink:href="#DejaVuSans-53"/>
       <use x="127.246094" xlink:href="#DejaVuSans-48"/>
      </g>
     </g>
    </g>
    <g id="xtick_5">
     <g id="line2d_5">
      <g>
       <use style="stroke:#000000;stroke-width:0.8;" x="296.355224" xlink:href="#m6016fc8a6a" y="252"/>
      </g>
     </g>
     <g id="text_5">
      <!-- 200 -->
      <defs>
       <path d="M 19.1875 8.296875 
L 53.609375 8.296875 
L 53.609375 0 
L 7.328125 0 
L 7.328125 8.296875 
Q 12.9375 14.109375 22.625 23.890625 
Q 32.328125 33.6875 34.8125 36.53125 
Q 39.546875 41.84375 41.421875 45.53125 
Q 43.3125 49.21875 43.3125 52.78125 
Q 43.3125 58.59375 39.234375 62.25 
Q 35.15625 65.921875 28.609375 65.921875 
Q 23.96875 65.921875 18.8125 64.3125 
Q 13.671875 62.703125 7.8125 59.421875 
L 7.8125 69.390625 
Q 13.765625 71.78125 18.9375 73 
Q 24.125 74.21875 28.421875 74.21875 
Q 39.75 74.21875 46.484375 68.546875 
Q 53.21875 62.890625 53.21875 53.421875 
Q 53.21875 48.921875 51.53125 44.890625 
Q 49.859375 40.875 45.40625 35.40625 
Q 44.1875 33.984375 37.640625 27.21875 
Q 31.109375 20.453125 19.1875 8.296875 
z
" id="DejaVuSans-50"/>
      </defs>
      <g transform="translate(286.811474 266.598437)scale(0.1 -0.1)">
       <use xlink:href="#DejaVuSans-50"/>
       <use x="63.623047" xlink:href="#DejaVuSans-48"/>
       <use x="127.246094" xlink:href="#DejaVuSans-48"/>
      </g>
     </g>
    </g>
    <g id="xtick_6">
     <g id="line2d_6">
      <g>
       <use style="stroke:#000000;stroke-width:0.8;" x="353.139484" xlink:href="#m6016fc8a6a" y="252"/>
      </g>
     </g>
     <g id="text_6">
      <!-- 250 -->
      <g transform="translate(343.595734 266.598437)scale(0.1 -0.1)">
       <use xlink:href="#DejaVuSans-50"/>
       <use x="63.623047" xlink:href="#DejaVuSans-53"/>
       <use x="127.246094" xlink:href="#DejaVuSans-48"/>
      </g>
     </g>
    </g>
   </g>
   <g id="matplotlib.axis_2">
    <g id="ytick_1">
     <g id="line2d_7">
      <defs>
       <path d="M 0 0 
L -3.5 0 
" id="m0a149659a9" style="stroke:#000000;stroke-width:0.8;"/>
      </defs>
      <g>
       <use style="stroke:#000000;stroke-width:0.8;" x="54" xlink:href="#m0a149659a9" y="242.073749"/>
      </g>
     </g>
     <g id="text_7">
      <!-- 0 -->
      <g transform="translate(40.6375 245.872968)scale(0.1 -0.1)">
       <use xlink:href="#DejaVuSans-48"/>
      </g>
     </g>
    </g>
    <g id="ytick_2">
     <g id="line2d_8">
      <g>
       <use style="stroke:#000000;stroke-width:0.8;" x="54" xlink:href="#m0a149659a9" y="204.271509"/>
      </g>
     </g>
     <g id="text_8">
      <!-- 500 -->
      <g transform="translate(27.9125 208.070727)scale(0.1 -0.1)">
       <use xlink:href="#DejaVuSans-53"/>
       <use x="63.623047" xlink:href="#DejaVuSans-48"/>
       <use x="127.246094" xlink:href="#DejaVuSans-48"/>
      </g>
     </g>
    </g>
    <g id="ytick_3">
     <g id="line2d_9">
      <g>
       <use style="stroke:#000000;stroke-width:0.8;" x="54" xlink:href="#m0a149659a9" y="166.469268"/>
      </g>
     </g>
     <g id="text_9">
      <!-- 1000 -->
      <g transform="translate(21.55 170.268487)scale(0.1 -0.1)">
       <use xlink:href="#DejaVuSans-49"/>
       <use x="63.623047" xlink:href="#DejaVuSans-48"/>
       <use x="127.246094" xlink:href="#DejaVuSans-48"/>
       <use x="190.869141" xlink:href="#DejaVuSans-48"/>
      </g>
     </g>
    </g>
    <g id="ytick_4">
     <g id="line2d_10">
      <g>
       <use style="stroke:#000000;stroke-width:0.8;" x="54" xlink:href="#m0a149659a9" y="128.667028"/>
      </g>
     </g>
     <g id="text_10">
      <!-- 1500 -->
      <g transform="translate(21.55 132.466247)scale(0.1 -0.1)">
       <use xlink:href="#DejaVuSans-49"/>
       <use x="63.623047" xlink:href="#DejaVuSans-53"/>
       <use x="127.246094" xlink:href="#DejaVuSans-48"/>
       <use x="190.869141" xlink:href="#DejaVuSans-48"/>
      </g>
     </g>
    </g>
    <g id="ytick_5">
     <g id="line2d_11">
      <g>
       <use style="stroke:#000000;stroke-width:0.8;" x="54" xlink:href="#m0a149659a9" y="90.864788"/>
      </g>
     </g>
     <g id="text_11">
      <!-- 2000 -->
      <g transform="translate(21.55 94.664006)scale(0.1 -0.1)">
       <use xlink:href="#DejaVuSans-50"/>
       <use x="63.623047" xlink:href="#DejaVuSans-48"/>
       <use x="127.246094" xlink:href="#DejaVuSans-48"/>
       <use x="190.869141" xlink:href="#DejaVuSans-48"/>
      </g>
     </g>
    </g>
    <g id="ytick_6">
     <g id="line2d_12">
      <g>
       <use style="stroke:#000000;stroke-width:0.8;" x="54" xlink:href="#m0a149659a9" y="53.062547"/>
      </g>
     </g>
     <g id="text_12">
      <!-- 2500 -->
      <g transform="translate(21.55 56.861766)scale(0.1 -0.1)">
       <use xlink:href="#DejaVuSans-50"/>
       <use x="63.623047" xlink:href="#DejaVuSans-53"/>
       <use x="127.246094" xlink:href="#DejaVuSans-48"/>
       <use x="190.869141" xlink:href="#DejaVuSans-48"/>
      </g>
     </g>
    </g>
   </g>
   <g id="line2d_13">
    <path clip-path="url(#p0a028dea29)" d="M 69.218182 242.073749 
L 83.98209 242.073749 
L 85.117775 241.925686 
L 87.389145 242.116364 
L 88.52483 240.163667 
L 89.660516 236.741484 
L 91.931886 240.82532 
L 93.067571 240.421718 
L 94.203256 226.743433 
L 95.338942 236.798451 
L 96.474627 239.550108 
L 97.610312 234.107079 
L 98.745997 230.680219 
L 99.881682 234.938293 
L 101.017368 231.512297 
L 102.153053 229.994866 
L 103.288738 234.748027 
L 104.424423 212.521956 
L 105.560109 219.128204 
L 106.695794 229.297608 
L 107.831479 191.898252 
L 108.967164 227.770955 
L 110.102849 221.900317 
L 111.238535 237.935441 
L 112.37422 234.436885 
L 113.509905 231.721642 
L 114.64559 229.536742 
L 115.781275 227.748333 
L 116.916961 232.549568 
L 118.052646 229.150644 
L 119.188331 230.786161 
L 120.324016 232.868871 
L 121.459701 231.30378 
L 122.595387 237.792381 
L 123.731072 234.953258 
L 124.866757 231.794014 
L 126.002442 232.766256 
L 127.138128 235.283949 
L 128.273813 236.003351 
L 129.409498 231.824529 
L 131.680868 228.885389 
L 132.816554 228.984857 
L 133.952239 232.005131 
L 135.087924 233.544602 
L 136.223609 233.312339 
L 137.359294 231.997792 
L 138.49498 234.18929 
L 139.630665 233.521783 
L 140.76635 227.620975 
L 141.902035 227.694331 
L 143.03772 237.724317 
L 144.173406 221.239415 
L 145.309091 226.19309 
L 146.444776 228.525874 
L 147.580461 229.119932 
L 148.716147 226.04676 
L 149.851832 236.996318 
L 150.987517 218.337474 
L 152.123202 231.105744 
L 153.258887 227.50022 
L 154.394573 226.492889 
L 155.530258 229.84521 
L 156.665943 225.379408 
L 157.801628 225.313024 
L 158.937313 232.148747 
L 160.072999 237.591447 
L 161.208684 222.041095 
L 162.344369 224.254448 
L 163.480054 226.717515 
L 164.615739 225.95034 
L 165.751425 227.06019 
L 166.88711 238.591361 
L 168.022795 214.593126 
L 169.15848 217.488045 
L 170.294166 226.031211 
L 171.429851 219.740488 
L 172.565536 220.011991 
L 173.701221 210.076457 
L 174.836906 231.630926 
L 175.972592 219.867891 
L 177.108277 221.501135 
L 178.243962 221.499467 
L 179.379647 221.657747 
L 180.515332 220.686767 
L 181.651018 217.414008 
L 182.786703 228.55965 
L 183.922388 208.550529 
L 185.058073 214.646627 
L 186.193758 212.690213 
L 187.329444 216.429862 
L 188.465129 158.469969 
L 189.600814 160.231548 
L 190.736499 232.645553 
L 191.872185 95.111042 
L 193.00787 142.618989 
L 194.143555 142.093376 
L 195.27924 152.754595 
L 196.414925 157.161426 
L 197.550611 180.407806 
L 198.686296 236.854186 
L 199.821981 139.05048 
L 200.957666 195.584644 
L 202.093351 138.585086 
L 203.229037 155.295005 
L 204.364722 166.510458 
L 205.500407 199.322405 
L 206.636092 198.024476 
L 207.771777 157.527839 
L 208.907463 147.168991 
L 210.043148 191.408253 
L 211.178833 180.520991 
L 212.314518 167.035559 
L 213.450204 99.538261 
L 214.585889 136.162226 
L 215.721574 105.190969 
L 216.857259 119.890236 
L 217.992944 130.812536 
L 219.12863 140.028668 
L 220.264315 133.583802 
L 221.4 143.591982 
L 222.535685 161.600282 
L 223.67137 153.301703 
L 224.807056 141.384602 
L 225.942741 155.892181 
L 227.078426 147.78744 
L 228.214111 128.903892 
L 229.349796 151.128813 
L 230.485482 154.27656 
L 231.621167 168.904255 
L 232.756852 160.190912 
L 235.028223 113.411895 
L 236.163908 93.882746 
L 237.299593 99.808986 
L 238.435278 117.015493 
L 240.706649 138.61126 
L 241.842334 143.676077 
L 242.978019 161.831323 
L 244.113704 155.566404 
L 245.249389 144.290954 
L 246.385075 151.494597 
L 247.52076 183.030803 
L 248.656445 162.327099 
L 249.79213 167.849368 
L 250.927815 170.124517 
L 252.063501 169.837747 
L 253.199186 168.289147 
L 254.334871 188.869731 
L 255.470556 193.017119 
L 256.606242 176.605668 
L 257.741927 177.953203 
L 258.877612 176.942228 
L 260.013297 170.609684 
L 261.148982 170.775655 
L 262.284668 188.323342 
L 263.420353 186.40798 
L 264.556038 182.543365 
L 265.691723 185.673992 
L 266.827408 194.825794 
L 267.963094 202.507798 
L 269.098779 152.460114 
L 270.234464 128.549957 
L 271.370149 158.204569 
L 272.505834 170.65881 
L 274.777205 200.93756 
L 275.91289 183.61856 
L 277.048575 183.98261 
L 278.184261 184.153084 
L 279.319946 188.076691 
L 280.455631 137.997841 
L 281.591316 198.604606 
L 282.727001 181.934002 
L 283.862687 162.607865 
L 284.998372 163.553189 
L 286.134057 155.691975 
L 287.269742 185.473265 
L 288.405427 178.578749 
L 289.541113 150.09322 
L 290.676798 151.819313 
L 291.812483 200.02763 
L 292.948168 179.143757 
L 294.083853 165.358851 
L 295.219539 163.046615 
L 296.355224 199.129735 
L 297.490909 166.545297 
L 298.626594 205.608075 
L 299.76228 227.905924 
L 300.897965 218.839381 
L 302.03365 230.181921 
L 303.169335 225.773343 
L 304.30502 232.288067 
L 305.440706 215.54036 
L 306.576391 230.742189 
L 307.712076 223.272739 
L 308.847761 223.097863 
L 309.983446 231.541953 
L 311.119132 217.287567 
L 312.254817 230.515319 
L 313.390502 231.917634 
L 314.526187 235.599731 
L 315.661872 227.542184 
L 316.797558 226.111827 
L 317.933243 228.396222 
L 319.068928 227.043261 
L 320.204613 218.215247 
L 321.340299 231.619964 
L 322.475984 229.647923 
L 323.611669 219.332296 
L 324.747354 221.48063 
L 325.883039 224.348008 
L 327.018725 226.452603 
L 328.15441 225.419082 
L 329.290095 222.561374 
L 330.42578 232.601532 
L 331.561465 214.631284 
L 332.697151 213.582664 
L 333.832836 207.344821 
L 334.968521 192.23814 
L 336.104206 230.595005 
L 337.239891 210.535031 
L 338.375577 221.078363 
L 339.511262 194.051397 
L 340.646947 220.444324 
L 341.782632 207.147146 
L 342.918318 165.560238 
L 344.054003 210.270752 
L 345.189688 202.570698 
L 346.325373 215.516759 
L 347.461058 194.928089 
L 348.596744 196.166804 
L 349.732429 153.379735 
L 350.868114 172.463221 
L 352.003799 221.847601 
L 353.139484 192.256958 
L 354.27517 155.213448 
L 355.410855 189.363688 
L 356.54654 191.677207 
L 357.682225 187.349247 
L 358.81791 172.222795 
L 361.089281 182.55767 
L 362.224966 186.659393 
L 363.360651 200.027736 
L 364.496336 200.099898 
L 365.632022 188.428332 
L 366.767707 181.137885 
L 367.903392 190.172353 
L 369.039077 191.802939 
L 370.174763 194.475772 
L 371.310448 200.144373 
L 372.446133 202.415563 
L 373.581818 200.890358 
L 373.581818 200.890358 
" style="fill:none;stroke:#1f77b4;stroke-linecap:square;stroke-width:1.5;"/>
   </g>
   <g id="line2d_14">
    <path clip-path="url(#p0a028dea29)" d="M 69.218182 242.073749 
L 70.353867 242.073749 
L 71.489552 241.771331 
L 72.625237 241.998144 
L 74.896608 242.073749 
L 76.032293 241.92254 
L 77.167978 242.073749 
L 78.303664 241.846936 
L 79.439349 242.073749 
L 82.846404 242.073749 
L 83.98209 241.015286 
L 85.117775 241.92254 
L 87.389145 242.073749 
L 88.52483 240.032428 
L 89.660516 236.025391 
L 90.796201 238.21792 
L 91.931886 240.712868 
L 93.067571 240.108032 
L 94.203256 225.743181 
L 95.338942 235.949786 
L 96.474627 239.276383 
L 97.610312 233.228025 
L 98.745997 229.447801 
L 99.881682 233.908465 
L 101.017368 230.657472 
L 102.153053 228.616151 
L 103.288738 233.681652 
L 104.424423 210.773494 
L 105.560109 216.595039 
L 106.695794 227.330875 
L 107.831479 188.696986 
L 108.967164 225.89439 
L 110.102849 219.392405 
L 111.238535 236.932644 
L 112.37422 233.15242 
L 113.509905 229.977032 
L 114.64559 227.708898 
L 115.781275 226.272412 
L 116.916961 230.430659 
L 118.052646 227.482084 
L 119.188331 229.220987 
L 120.324016 230.430659 
L 121.459701 229.523405 
L 122.595387 236.932644 
L 123.731072 233.076816 
L 124.866757 230.581868 
L 126.002442 231.035495 
L 127.138128 234.437696 
L 128.273813 234.66451 
L 129.409498 230.052637 
L 130.545183 228.842965 
L 131.680868 227.330875 
L 132.816554 227.330875 
L 133.952239 230.203845 
L 135.087924 232.245166 
L 136.223609 232.320771 
L 137.359294 229.901428 
L 138.49498 233.303629 
L 139.630665 232.018353 
L 140.76635 225.667577 
L 141.902035 226.272412 
L 143.03772 236.403413 
L 144.173406 219.543614 
L 145.309091 223.928674 
L 146.444776 226.57483 
L 147.580461 227.255271 
L 148.716147 224.457905 
L 149.851832 236.327808 
L 150.987517 216.44383 
L 152.123202 229.220987 
L 153.258887 225.138345 
L 154.394573 224.231092 
L 155.530258 227.860107 
L 156.665943 223.70186 
L 157.801628 223.626256 
L 158.937313 230.657472 
L 160.072999 236.479017 
L 161.208684 220.450867 
L 162.344369 222.340979 
L 163.480054 224.835927 
L 164.615739 224.004278 
L 165.751425 226.121204 
L 166.88711 237.839898 
L 168.022795 212.73921 
L 169.15848 214.629322 
L 170.294166 223.853069 
L 171.429851 216.746248 
L 172.565536 216.595039 
L 173.701221 205.556785 
L 174.836906 229.750219 
L 175.972592 216.973061 
L 177.108277 217.880315 
L 178.243962 218.333942 
L 179.379647 218.485151 
L 180.515332 217.577897 
L 181.651018 213.344046 
L 182.786703 226.196808 
L 183.922388 203.969091 
L 185.058073 209.941845 
L 186.193758 208.051733 
L 187.329444 212.209979 
L 188.465129 152.33123 
L 189.600814 156.262663 
L 190.736499 228.540547 
L 191.872185 91.318414 
L 193.00787 138.193192 
L 194.143555 138.873633 
L 195.27924 149.004633 
L 196.414925 148.475402 
L 197.550611 173.42488 
L 198.686296 233.530443 
L 199.821981 132.220438 
L 200.957666 189.679844 
L 202.093351 133.43011 
L 203.229037 147.643753 
L 204.364722 150.743536 
L 205.500407 196.937874 
L 206.636092 190.360284 
L 207.771777 152.936066 
L 208.907463 126.020871 
L 210.043148 189.075008 
L 211.178833 173.500485 
L 212.314518 160.345305 
L 213.450204 95.476661 
L 214.585889 134.034946 
L 215.721574 90.789183 
L 217.992944 140.536931 
L 219.12863 121.182184 
L 220.264315 122.165043 
L 221.4 147.492544 
L 222.535685 169.266634 
L 223.67137 141.822208 
L 225.942741 132.900879 
L 227.078426 129.271864 
L 228.214111 151.121559 
L 229.349796 129.120655 
L 230.485482 148.626611 
L 231.621167 178.112358 
L 232.756852 131.313185 
L 233.892537 131.23758 
L 235.028223 111.731624 
L 236.163908 82.245877 
L 237.299593 96.913146 
L 238.435278 109.161072 
L 239.570963 131.464394 
L 240.706649 133.354506 
L 241.842334 138.420006 
L 242.978019 166.091246 
L 244.113704 146.509685 
L 245.249389 134.9422 
L 246.385075 154.599365 
L 247.52076 181.136538 
L 248.656445 170.854328 
L 249.79213 167.300918 
L 250.927815 171.685977 
L 252.063501 155.204201 
L 253.199186 157.094313 
L 254.334871 200.113262 
L 255.470556 189.831053 
L 256.606242 171.912791 
L 257.741927 181.287746 
L 258.877612 169.87147 
L 260.013297 164.427947 
L 261.148982 159.891678 
L 262.284668 184.538739 
L 263.420353 182.799836 
L 264.556038 175.466201 
L 265.691723 173.576089 
L 266.827408 197.240292 
L 267.963094 134.866595 
L 269.098779 124.055155 
L 270.234464 158.303984 
L 271.370149 178.717194 
L 272.505834 174.407739 
L 273.64152 197.089083 
L 274.777205 186.58006 
L 275.91289 165.335201 
L 277.048575 171.912791 
L 278.184261 184.38753 
L 279.319946 242.073749 
L 280.455631 203.213046 
L 281.591316 187.411709 
L 282.727001 185.975224 
L 283.862687 170.400701 
L 284.998372 212.73921 
L 286.134057 164.730365 
L 287.269742 160.42091 
L 288.405427 215.082949 
L 289.541113 221.811748 
L 290.676798 200.340076 
L 291.812483 206.010412 
L 292.948168 195.803807 
L 294.083853 225.062741 
L 295.219539 203.742277 
L 296.355224 231.337913 
L 297.490909 234.059674 
L 298.626594 226.650435 
L 299.76228 223.02142 
L 300.897965 233.530443 
L 302.03365 229.069778 
L 303.169335 232.018353 
L 304.30502 219.392405 
L 305.440706 231.413517 
L 306.576391 235.949786 
L 307.712076 221.962957 
L 308.847761 213.344046 
L 309.983446 225.89439 
L 311.119132 229.145383 
L 312.254817 227.557689 
L 313.390502 227.633293 
L 314.526187 232.320771 
L 315.661872 223.323838 
L 316.797558 219.468009 
L 317.933243 210.319867 
L 319.068928 225.21395 
L 320.204613 229.447801 
L 321.340299 193.233254 
L 322.475984 226.121204 
L 323.611669 218.031524 
L 324.747354 224.760323 
L 325.883039 225.516368 
L 327.018725 219.392405 
L 328.15441 225.21395 
L 329.290095 193.913695 
L 330.42578 220.904494 
L 331.561465 215.082949 
L 332.697151 186.731269 
L 333.832836 221.206912 
L 334.968521 212.966024 
L 336.104206 229.220987 
L 337.239891 186.050829 
L 338.375577 219.165591 
L 339.511262 202.910628 
L 340.646947 194.518531 
L 341.782632 214.478113 
L 342.918318 211.151516 
L 344.054003 208.278546 
L 345.189688 204.573927 
L 346.325373 194.064904 
L 347.461058 195.576993 
L 348.596744 207.446897 
L 349.732429 192.930836 
L 350.868114 204.80074 
L 352.003799 192.099187 
L 353.139484 217.502293 
L 354.27517 178.339172 
L 355.410855 188.318963 
L 356.54654 194.896553 
L 357.682225 164.427947 
L 358.81791 222.265375 
L 359.953596 208.051733 
L 361.089281 131.842416 
L 362.224966 145.678036 
L 363.360651 165.410806 
L 364.496336 138.420006 
L 365.632022 187.109291 
L 366.767707 176.071037 
L 367.903392 145.224409 
L 369.039077 108.556236 
L 370.174763 199.886449 
L 371.310448 234.135278 
L 372.446133 237.53748 
L 373.581818 44.443636 
L 373.581818 44.443636 
" style="fill:none;stroke:#ff7f0e;stroke-linecap:square;stroke-width:1.5;"/>
   </g>
   <g id="patch_3">
    <path d="M 54 252 
L 54 34.56 
" style="fill:none;stroke:#000000;stroke-linecap:square;stroke-linejoin:miter;stroke-width:0.8;"/>
   </g>
   <g id="patch_4">
    <path d="M 388.8 252 
L 388.8 34.56 
" style="fill:none;stroke:#000000;stroke-linecap:square;stroke-linejoin:miter;stroke-width:0.8;"/>
   </g>
   <g id="patch_5">
    <path d="M 54 252 
L 388.8 252 
" style="fill:none;stroke:#000000;stroke-linecap:square;stroke-linejoin:miter;stroke-width:0.8;"/>
   </g>
   <g id="patch_6">
    <path d="M 54 34.56 
L 388.8 34.56 
" style="fill:none;stroke:#000000;stroke-linecap:square;stroke-linejoin:miter;stroke-width:0.8;"/>
   </g>
  </g>
 </g>
 <defs>
  <clipPath id="p0a028dea29">
   <rect height="217.44" width="334.8" x="54" y="34.56"/>
  </clipPath>
 </defs>
</svg>
